<svg xmlns="http://www.w3.org/2000/svg" aria-hidden="true" style="position:absolute;width:0;height:0;overflow:hidden"><defs><symbol id="Pinterest" viewBox="0 0 32 32"><path fill="#fff" d="M16 31.335c8.483 0 15.36-6.877 15.36-15.36S24.483.615 16 .615.64 7.492.64 15.975 7.517 31.335 16 31.335z" style="fill:var(--color1, #fff)"/><path fill="#1d1d1d" d="M16 .615C7.517.615.64 7.492.64 15.975c0 6.511 4.045 12.073 9.76 14.311-.139-1.214-.253-3.085.051-4.412.278-1.201 1.795-7.636 1.795-7.636s-.455-.923-.455-2.276c0-2.136 1.239-3.729 2.781-3.729 1.315 0 1.947.986 1.947 2.162 0 1.315-.834 3.287-1.277 5.12-.367 1.53.771 2.781 2.276 2.781 2.731 0 4.829-2.882 4.829-7.029 0-3.679-2.642-6.245-6.422-6.245-4.374 0-6.94 3.274-6.94 6.662 0 1.315.506 2.731 1.138 3.502a.458.458 0 0 1 .101.442c-.114.48-.379 1.53-.43 1.745-.063.278-.228.341-.518.202-1.922-.898-3.123-3.692-3.123-5.954 0-4.842 3.514-9.292 10.151-9.292 5.322 0 9.469 3.793 9.469 8.875 0 5.297-3.337 9.557-7.965 9.557-1.555 0-3.021-.809-3.514-1.77l-.961 3.654c-.341 1.34-1.277 3.009-1.909 4.033 1.441.442 2.958.683 4.551.683 8.483 0 15.36-6.877 15.36-15.36C31.36 7.493 24.483.616 16 .616z" style="fill:var(--color2, #1d1d1d)"/></symbol><symbol id="YouTube" viewBox="0 0 32 32"><path fill="#1d1d1d" d="M30.748 8.582a3.861 3.861 0 0 0-2.716-2.734c-2.402-.646-12.002-.646-12.002-.646s-9.6 0-12.002.646a3.858 3.858 0 0 0-2.716 2.734C.67 10.994.67 16.025.67 16.025s0 5.03.642 7.443a3.861 3.861 0 0 0 2.716 2.734c2.402.646 12.002.646 12.002.646s9.6 0 12.002-.646a3.858 3.858 0 0 0 2.716-2.734c.642-2.412.642-7.443.642-7.443s0-5.03-.642-7.443z" style="fill:var(--color2, #1d1d1d)"/><path fill="#fefefe" d="M12.889 20.593v-9.136l8.029 4.568-8.029 4.568z" style="fill:var(--color3, #fefefe)"/></symbol><symbol id="Instagram" viewBox="0 0 32 32"><path d="M16 3.381c4.104 0 4.59.018 6.204.09 1.5.066 2.31.318 2.85.528a4.75 4.75 0 0 1 1.764 1.146c.54.54.87 1.05 1.146 1.764.21.54.462 1.356.528 2.85.072 1.62.09 2.106.09 6.204 0 4.104-.018 4.59-.09 6.204-.066 1.5-.318 2.31-.528 2.85a4.75 4.75 0 0 1-1.146 1.764c-.54.54-1.05.87-1.764 1.146-.54.21-1.356.462-2.85.528-1.62.072-2.106.09-6.204.09-4.104 0-4.59-.018-6.204-.09-1.5-.066-2.31-.318-2.85-.528a4.75 4.75 0 0 1-1.764-1.146c-.54-.54-.87-1.05-1.146-1.764-.21-.54-.462-1.356-.528-2.85-.072-1.62-.09-2.106-.09-6.204 0-4.104.018-4.59.09-6.204.066-1.5.318-2.31.528-2.85a4.75 4.75 0 0 1 1.146-1.764c.54-.54 1.05-.87 1.764-1.146.54-.21 1.356-.462 2.85-.528 1.614-.072 2.1-.09 6.204-.09zm0-2.766c-4.17 0-4.692.018-6.33.09-1.632.072-2.754.336-3.726.714-1.014.396-1.872.918-2.724 1.776a7.526 7.526 0 0 0-1.776 2.718C1.066 6.891.802 8.007.73 9.639c-.072 1.644-.09 2.166-.09 6.336s.018 4.692.09 6.33c.072 1.632.336 2.754.714 3.726.396 1.014.918 1.872 1.776 2.724a7.508 7.508 0 0 0 2.718 1.77c.978.378 2.094.642 3.726.714 1.638.072 2.16.09 6.33.09s4.692-.018 6.33-.09c1.632-.072 2.754-.336 3.726-.714 1.008-.39 1.866-.918 2.718-1.77s1.38-1.71 1.77-2.718c.378-.978.642-2.094.714-3.726.072-1.638.09-2.16.09-6.33s-.018-4.692-.09-6.33c-.072-1.632-.336-2.754-.714-3.726a7.194 7.194 0 0 0-1.758-2.73 7.508 7.508 0 0 0-2.718-1.77c-.978-.378-2.094-.642-3.726-.714C20.692.633 20.17.615 16 .615z"/><path d="M16 8.085c-4.356 0-7.89 3.534-7.89 7.89s3.534 7.89 7.89 7.89 7.89-3.534 7.89-7.89A7.892 7.892 0 0 0 16 8.085zm0 13.008a5.119 5.119 0 1 1 .002-10.238A5.119 5.119 0 0 1 16 21.093zM26.044 7.773a1.842 1.842 0 1 1-3.685 0 1.842 1.842 0 0 1 3.685 0z"/></symbol><symbol id="Facebook" viewBox="0 0 32 32"><path fill="#1d1d1d" d="M31.36 15.975C31.36 7.492 24.483.615 16 .615S.64 7.492.64 15.975c0 7.666 5.617 14.021 12.96 15.173V20.415H9.7v-4.44h3.9v-3.384c0-3.85 2.293-5.976 5.802-5.976 1.68 0 3.438.3 3.438.3v3.78h-1.937c-1.908 0-2.503 1.184-2.503 2.4v2.88h4.26l-.681 4.44H18.4v10.733c7.343-1.152 12.96-7.507 12.96-15.173z" style="fill:var(--color2, #1d1d1d)"/><path fill="#fff" d="m21.979 20.415.681-4.44H18.4v-2.88c0-1.215.595-2.4 2.503-2.4h1.937v-3.78s-1.758-.3-3.438-.3c-3.508 0-5.802 2.126-5.802 5.976v3.384H9.7v4.44h3.9v10.733c1.59.249 3.21.249 4.8 0V20.415h3.579z" style="fill:var(--color1, #fff)"/></symbol></defs></svg>