<svg xmlns="http://www.w3.org/2000/svg"  viewBox="0 0 32 33" width="32" height="33" ><path d="M3.386 18.715c.454 0 .821.367.821.82v11.323h22.645V19.536a.821.821 0 0 1 1.642 0v12.143a.82.82 0 0 1-.821.821H3.386a.821.821 0 0 1-.82-.821V19.536c0-.454.367-.821.82-.821Z"/><path d="M15.291.74c.32-.32.84-.32 1.161 0l15.051 15.051a.821.821 0 0 1-.58 1.402H12.587v10.244h6.226v-7.166h-2.942a.82.82 0 1 1 0-1.642h3.762c.454 0 .821.368.821.821v8.808a.821.821 0 0 1-.82.821h-7.868a.821.821 0 0 1-.821-.82V16.371a.82.82 0 0 1 .821-.821h17.174L15.87 2.48 1.402 16.953a.821.821 0 0 1-1.16-1.16L15.29.74Z" /></svg>