<svg aria-hidden="true" style="position: absolute; width: 0; height: 0; overflow: hidden;" version="1.1" xmlns="http://www.w3.org/2000/svg" xmlns:xlink="http://www.w3.org/1999/xlink">
<defs>
<symbol id="link" viewBox="0 0 30 32" fill="currentColor">
<path d="M9.204 30.375c-4.651-0-8.421-3.77-8.421-8.421 0-2.325 0.942-4.43 2.466-5.954l3.572-3.574 2.381 2.381-3.572 3.572c-0.914 0.914-1.48 2.178-1.48 3.573 0 2.791 2.262 5.053 5.053 5.053 1.395 0 2.659-0.566 3.573-1.48v0l3.571-3.572 2.383 2.383-3.572 3.572c-1.516 1.523-3.614 2.466-5.932 2.466-0.008 0-0.016 0-0.024-0h0.001zM10.395 23.144l-2.381-2.381 11.907-11.909 2.383 2.381-11.909 11.909zM23.496 19.572l-2.383-2.381 3.571-3.572c0.952-0.92 1.543-2.209 1.543-3.635 0-2.79-2.262-5.053-5.053-5.053-1.426 0-2.713 0.59-3.632 1.54l-0.001 0.001-3.574 3.572-2.381-2.381 3.572-3.574c1.516-1.479 3.591-2.391 5.878-2.391 4.651 0 8.421 3.77 8.421 8.421 0 2.288-0.913 4.363-2.394 5.881l0.002-0.002-3.571 3.574z"></path>
</symbol>
<symbol fill="#fff" xmlns="http://www.w3.org/2000/svg" viewBox="0 0 19 19" id="close_24px">
    <path d="M18.6667 1.88L16.7867 0L9.33333 7.45334L1.88 0L0 1.88L7.45334 9.33333L0 16.7867L1.88 18.6667L9.33333 11.2133L16.7867 18.6667L18.6667 16.7867L11.2133 9.33333L18.6667 1.88Z"></path>
  </symbol>
<symbol id="login" viewBox="0 0 30 32" fill="currentColor">
<path  d="M26.947 31.158h-15.158c-1.86 0-3.368-1.508-3.368-3.368v0-6.737h3.368v6.737h15.158v-23.579h-15.158v6.737h-3.368v-6.737c0-1.86 1.508-3.368 3.368-3.368v0h15.158c1.86 0 3.368 1.508 3.368 3.368v0 23.579c0 1.86-1.508 3.368-3.368 3.368v0zM15.158 22.737v-5.053h-15.158v-3.368h15.158v-5.053l8.421 6.737-8.421 6.737z"></path>
</symbol> <symbol fill="none" xmlns="http://www.w3.org/2000/svg" viewBox="0 0 18 19" id="downdrop">
    <path d="M17.4344 9.51074L8.93445 17.75M8.93445 17.75L0.434448 9.51074M8.93445 17.75L8.93445 0.75" stroke="#161616"></path>
  </symbol>
  <symbol xmlns="http://www.w3.org/2000/svg" viewBox="0 0 19 19" id="icon-left">
    <path d="M9.67689 17.6876L1.43762 9.18762M1.43762 9.18762L9.67688 0.687623M1.43762 9.18762L18.4376 9.18762" stroke="#161616"></path>
  </symbol>
  <symbol xmlns="http://www.w3.org/2000/svg" viewBox="0 0 19 19" id="icon-right">
    <path d="M9.32311 0.812378L17.5624 9.31238M17.5624 9.31238L9.32311 17.8124M17.5624 9.31238H0.562378" stroke="#161616"></path>
  </symbol>
  <symbol fill="none" xmlns="http://www.w3.org/2000/svg" viewBox="0 0 32 33" id="facebook">
    <g clip-path="url(#clip0_160_267)">
      <path d="M32 16.2504C32 7.4138 24.8366 0.250366 16 0.250366C7.16344 0.250366 0 7.4138 0 16.2504C0 24.2363 5.85094 30.8557 13.5 32.056V20.8754H9.4375V16.2504H13.5V12.7254C13.5 8.71537 15.8888 6.50037 19.5434 6.50037C21.2934 6.50037 23.125 6.81287 23.125 6.81287V10.7504H21.1075C19.12 10.7504 18.5 11.9838 18.5 13.2504V16.2504H22.9375L22.2281 20.8754H18.5V32.056C26.1491 30.8557 32 24.2363 32 16.2504Z" fill="#161616"></path>
      <path d="M22.2281 20.8754L22.9375 16.2504H18.5V13.2504C18.5 11.9851 19.12 10.7504 21.1075 10.7504H23.125V6.81287C23.125 6.81287 21.2941 6.50037 19.5434 6.50037C15.8888 6.50037 13.5 8.71537 13.5 12.7254V16.2504H9.4375V20.8754H13.5V32.056C15.1566 32.3152 16.8434 32.3152 18.5 32.056V20.8754H22.2281Z" fill="white"></path>
    </g>
    <defs>
      <clipPath id="clip0_160_267">
        <rect width="32" height="32" fill="white" transform="translate(0 0.250366)"></rect>
      </clipPath>
    </defs>
  </symbol>
  <symbol fill="none" xmlns="http://www.w3.org/2000/svg" viewBox="0 0 32 33" id="instagram">
    <g clip-path="url(#clip0_160_268)">
      <path d="M16 3.13162C20.275 3.13162 20.7813 3.15037 22.4625 3.22537C24.025 3.29412 24.8688 3.55662 25.4313 3.77537C26.175 4.06287 26.7125 4.41287 27.2688 4.96912C27.8313 5.53162 28.175 6.06287 28.4625 6.80662C28.6813 7.36912 28.9438 8.21912 29.0125 9.77537C29.0875 11.4629 29.1063 11.9691 29.1063 16.2379C29.1063 20.5129 29.0875 21.0191 29.0125 22.7004C28.9438 24.2629 28.6813 25.1066 28.4625 25.6691C28.175 26.4129 27.825 26.9504 27.2688 27.5066C26.7063 28.0691 26.175 28.4129 25.4313 28.7004C24.8688 28.9191 24.0188 29.1816 22.4625 29.2504C20.775 29.3254 20.2688 29.3441 16 29.3441C11.725 29.3441 11.2188 29.3254 9.5375 29.2504C7.975 29.1816 7.13125 28.9191 6.56875 28.7004C5.825 28.4129 5.2875 28.0629 4.73125 27.5066C4.16875 26.9441 3.825 26.4129 3.5375 25.6691C3.31875 25.1066 3.05625 24.2566 2.9875 22.7004C2.9125 21.0129 2.89375 20.5066 2.89375 16.2379C2.89375 11.9629 2.9125 11.4566 2.9875 9.77537C3.05625 8.21287 3.31875 7.36912 3.5375 6.80662C3.825 6.06287 4.175 5.52537 4.73125 4.96912C5.29375 4.40662 5.825 4.06287 6.56875 3.77537C7.13125 3.55662 7.98125 3.29412 9.5375 3.22537C11.2188 3.15037 11.725 3.13162 16 3.13162ZM16 0.250366C11.6563 0.250366 11.1125 0.269116 9.40625 0.344116C7.70625 0.419116 6.5375 0.694116 5.525 1.08787C4.46875 1.50037 3.575 2.04412 2.6875 2.93787C1.79375 3.82537 1.25 4.71912 0.8375 5.76912C0.44375 6.78787 0.16875 7.95037 0.09375 9.65037C0.01875 11.3629 0 11.9066 0 16.2504C0 20.5941 0.01875 21.1379 0.09375 22.8441C0.16875 24.5441 0.44375 25.7129 0.8375 26.7254C1.25 27.7816 1.79375 28.6754 2.6875 29.5629C3.575 30.4504 4.46875 31.0004 5.51875 31.4066C6.5375 31.8004 7.7 32.0754 9.4 32.1504C11.1063 32.2254 11.65 32.2441 15.9938 32.2441C20.3375 32.2441 20.8813 32.2254 22.5875 32.1504C24.2875 32.0754 25.4563 31.8004 26.4688 31.4066C27.5188 31.0004 28.4125 30.4504 29.3 29.5629C30.1875 28.6754 30.7375 27.7816 31.1438 26.7316C31.5375 25.7129 31.8125 24.5504 31.8875 22.8504C31.9625 21.1441 31.9813 20.6004 31.9813 16.2566C31.9813 11.9129 31.9625 11.3691 31.8875 9.66287C31.8125 7.96287 31.5375 6.79412 31.1438 5.78162C30.75 4.71912 30.2063 3.82537 29.3125 2.93787C28.425 2.05037 27.5313 1.50037 26.4813 1.09412C25.4625 0.700366 24.3 0.425366 22.6 0.350366C20.8875 0.269116 20.3438 0.250366 16 0.250366Z" fill="#161616"></path>
      <path d="M16 8.03162C11.4625 8.03162 7.78125 11.7129 7.78125 16.2504C7.78125 20.7879 11.4625 24.4691 16 24.4691C20.5375 24.4691 24.2188 20.7879 24.2188 16.2504C24.2188 11.7129 20.5375 8.03162 16 8.03162ZM16 21.5816C13.0563 21.5816 10.6687 19.1941 10.6687 16.2504C10.6687 13.3066 13.0563 10.9191 16 10.9191C18.9438 10.9191 21.3312 13.3066 21.3312 16.2504C21.3312 19.1941 18.9438 21.5816 16 21.5816Z" fill="#161616"></path>
      <path d="M26.4625 7.70653C26.4625 8.76904 25.6 9.62529 24.5438 9.62529C23.4813 9.62529 22.625 8.76279 22.625 7.70653C22.625 6.64403 23.4875 5.78778 24.5438 5.78778C25.6 5.78778 26.4625 6.65028 26.4625 7.70653Z" fill="#161616"></path>
    </g>
    <defs>
      <clipPath id="clip0_160_268">
        <rect width="32" height="32" fill="white" transform="translate(0 0.250366)"></rect>
      </clipPath>
    </defs>
  </symbol>
  <symbol fill="none" xmlns="http://www.w3.org/2000/svg" viewBox="0 0 32 33" id="pinterest">
    <g clip-path="url(#clip0_160_270)">
      <path d="M16 32.2504C24.8366 32.2504 32 25.0869 32 16.2504C32 7.41381 24.8366 0.250366 16 0.250366C7.16344 0.250366 0 7.41381 0 16.2504C0 25.0869 7.16344 32.2504 16 32.2504Z" fill="white"></path>
      <path d="M16 0.250366C7.16379 0.250366 0 7.41415 0 16.2504C0 23.0323 4.21399 28.8265 10.1663 31.1574C10.0214 29.8932 9.90288 27.9442 10.2189 26.5615C10.5086 25.3104 12.0889 18.6076 12.0889 18.6076C12.0889 18.6076 11.6148 17.6463 11.6148 16.2372C11.6148 14.0117 12.9053 12.3524 14.5119 12.3524C15.8815 12.3524 16.5399 13.3796 16.5399 14.6043C16.5399 15.9738 15.6708 18.0281 15.2099 19.9376C14.828 21.531 16.0132 22.8347 17.5802 22.8347C20.4247 22.8347 22.6107 19.8323 22.6107 15.5129C22.6107 11.6808 19.8584 9.00757 15.921 9.00757C11.3646 9.00757 8.69136 12.4183 8.69136 15.9475C8.69136 17.317 9.21811 18.7919 9.87654 19.5952C10.0082 19.7532 10.0214 19.8981 9.98189 20.0561C9.86337 20.5565 9.58683 21.6495 9.53416 21.8734C9.46831 22.1631 9.29712 22.229 8.99424 22.0841C6.99259 21.1491 5.74156 18.2388 5.74156 15.8816C5.74156 10.838 9.40247 6.20263 16.316 6.20263C21.8601 6.20263 26.1794 10.1532 26.1794 15.4471C26.1794 20.9648 22.7029 25.4026 17.8831 25.4026C16.2634 25.4026 14.7358 24.5598 14.2222 23.559C14.2222 23.559 13.4189 26.6142 13.2214 27.3648C12.8658 28.7607 11.8914 30.4989 11.2329 31.5656C12.7342 32.0265 14.3144 32.2767 15.9737 32.2767C24.8099 32.2767 31.9737 25.1129 31.9737 16.2767C32 7.41415 24.8362 0.250366 16 0.250366Z" fill="#161616"></path>
    </g>
    <defs>
      <clipPath id="clip0_160_270">
        <rect width="32" height="32" fill="white" transform="translate(0 0.250366)"></rect>
      </clipPath>
    </defs>
  </symbol>
  <symbol fill="none" xmlns="http://www.w3.org/2000/svg" viewBox="0 0 32 33" id="YouTube">
    <g clip-path="url(#clip0_160_269)">
      <path d="M31.3627 8.53672C31.1817 7.85594 30.8252 7.23462 30.3287 6.73493C29.8322 6.23524 29.2132 5.87472 28.5336 5.68945C26.0317 5.01672 16.0317 5.01672 16.0317 5.01672C16.0317 5.01672 6.03174 5.01672 3.52992 5.68945C2.85031 5.87472 2.23128 6.23524 1.73479 6.73493C1.23829 7.23462 0.881746 7.85594 0.700829 8.53672C0.0317384 11.0495 0.0317383 16.2895 0.0317383 16.2895C0.0317383 16.2895 0.0317384 21.5294 0.700829 24.0422C0.881746 24.723 1.23829 25.3443 1.73479 25.844C2.23128 26.3437 2.85031 26.7042 3.52992 26.8895C6.03174 27.5622 16.0317 27.5622 16.0317 27.5622C16.0317 27.5622 26.0317 27.5622 28.5336 26.8895C29.2132 26.7042 29.8322 26.3437 30.3287 25.844C30.8252 25.3443 31.1817 24.723 31.3627 24.0422C32.0317 21.5294 32.0317 16.2895 32.0317 16.2895C32.0317 16.2895 32.0317 11.0495 31.3627 8.53672Z" fill="#161616"></path>
      <path d="M12.759 21.0475V11.5311L21.1226 16.2893L12.759 21.0475Z" fill="white"></path>
    </g>
    <defs>
      <clipPath id="clip0_160_269">
        <rect width="32" height="32" fill="white" transform="translate(0 0.289429)"></rect>
      </clipPath>
    </defs>
  </symbol>
  <symbol xmlns="http://www.w3.org/2000/svg" viewBox="0 0 32 32" id="hause">
    <path fill-rule="evenodd" clip-rule="evenodd" d="M3.38644 18.2148C3.83984 18.2148 4.20739 18.5824 4.20739 19.0358L4.2074 30.3581H26.852V19.0358C26.852 18.5824 27.2195 18.2148 27.6729 18.2148C28.1263 18.2148 28.4939 18.5824 28.4939 19.0358V31.179C28.4939 31.6324 28.1263 32 27.6729 32H3.38645C2.93305 32 2.5655 31.6324 2.5655 31.179L2.56549 19.0358C2.56549 18.5824 2.93304 18.2148 3.38644 18.2148Z" fill="white"></path>
    <path fill-rule="evenodd" clip-rule="evenodd" d="M15.2912 0.240451C15.6118 -0.0801504 16.1316 -0.0801504 16.4522 0.240451L31.503 15.2912C31.7378 15.526 31.808 15.8791 31.681 16.1859C31.5539 16.4927 31.2545 16.6927 30.9225 16.6927H12.5879V26.9375H18.8135V19.7712H15.8717C15.4183 19.7712 15.0508 19.4037 15.0508 18.9503C15.0508 18.4969 15.4183 18.1293 15.8717 18.1293H19.6344C20.0878 18.1293 20.4554 18.4969 20.4554 18.9503V27.7584C20.4554 28.2118 20.0878 28.5794 19.6344 28.5794H11.767C11.3136 28.5794 10.946 28.2118 10.946 27.7584V15.8717C10.946 15.4183 11.3136 15.0508 11.767 15.0508H28.9405L15.8717 1.98195L1.40145 16.4522C1.08085 16.7728 0.561053 16.7728 0.240451 16.4522C-0.0801504 16.1316 -0.0801504 15.6118 0.240451 15.2912L15.2912 0.240451Z" fill="white"></path>
  </symbol>
</defs>
</svg>
