<svg aria-hidden="true" style="position: absolute; width: 0; height: 0; overflow: hidden;" version="1.1" xmlns="http://www.w3.org/2000/svg" xmlns:xlink="http://www.w3.org/1999/xlink">
<defs>
<symbol id="link" viewBox="0 0 30 32" fill="currentColor">
<path d="M9.204 30.375c-4.651-0-8.421-3.77-8.421-8.421 0-2.325 0.942-4.43 2.466-5.954l3.572-3.574 2.381 2.381-3.572 3.572c-0.914 0.914-1.48 2.178-1.48 3.573 0 2.791 2.262 5.053 5.053 5.053 1.395 0 2.659-0.566 3.573-1.48v0l3.571-3.572 2.383 2.383-3.572 3.572c-1.516 1.523-3.614 2.466-5.932 2.466-0.008 0-0.016 0-0.024-0h0.001zM10.395 23.144l-2.381-2.381 11.907-11.909 2.383 2.381-11.909 11.909zM23.496 19.572l-2.383-2.381 3.571-3.572c0.952-0.92 1.543-2.209 1.543-3.635 0-2.79-2.262-5.053-5.053-5.053-1.426 0-2.713 0.59-3.632 1.54l-0.001 0.001-3.574 3.572-2.381-2.381 3.572-3.574c1.516-1.479 3.591-2.391 5.878-2.391 4.651 0 8.421 3.77 8.421 8.421 0 2.288-0.913 4.363-2.394 5.881l0.002-0.002-3.571 3.574z"></path>
</symbol>
<symbol fill="#fff" xmlns="http://www.w3.org/2000/svg" viewBox="0 0 19 19" id="close_24px">
    <path d="M18.6667 1.88L16.7867 0L9.33333 7.45334L1.88 0L0 1.88L7.45334 9.33333L0 16.7867L1.88 18.6667L9.33333 11.2133L16.7867 18.6667L18.6667 16.7867L11.2133 9.33333L18.6667 1.88Z"></path>
  </symbol>
<symbol id="login" viewBox="0 0 30 32" fill="currentColor">
<path  d="M26.947 31.158h-15.158c-1.86 0-3.368-1.508-3.368-3.368v0-6.737h3.368v6.737h15.158v-23.579h-15.158v6.737h-3.368v-6.737c0-1.86 1.508-3.368 3.368-3.368v0h15.158c1.86 0 3.368 1.508 3.368 3.368v0 23.579c0 1.86-1.508 3.368-3.368 3.368v0zM15.158 22.737v-5.053h-15.158v-3.368h15.158v-5.053l8.421 6.737-8.421 6.737z"></path>
</symbol> <symbol fill="none" xmlns="http://www.w3.org/2000/svg" viewBox="0 0 18 19" id="downdrop">
    <path d="M17.4344 9.51074L8.93445 17.75M8.93445 17.75L0.434448 9.51074M8.93445 17.75L8.93445 0.75" stroke="#161616"></path>
  </symbol>
</defs>
</svg>
